<?xml version="1.0" encoding="iso-8859-1"?>
<!-- Generator: Adobe Illustrator 19.0.0, SVG Export Plug-In . SVG Version: 6.00 Build 0)  -->
<svg version="1.1" id="Capa_1" xmlns="http://www.w3.org/2000/svg" xmlns:xlink="http://www.w3.org/1999/xlink" x="0px" y="0px"
	 viewBox="0 0 480.015 480.015" style="enable-background:new 0 0 480.015 480.015;" xml:space="preserve">
<g>
	<g>
		<path d="M34.655,438.018l37.48-24.744c0.104-0.064,0.176-0.168,0.28-0.24c0.104-0.072,0.28-0.248,0.424-0.368
			c0.622-0.521,1.162-1.133,1.6-1.816L266.655,78.018c6.63-11.477,2.701-26.157-8.777-32.787c-0.008-0.004-0.015-0.009-0.023-0.013
			l-27.704-16c-11.477-6.63-26.157-2.701-32.787,8.777c-0.004,0.008-0.009,0.015-0.013,0.023c0,0-192.032,332.8-192.08,332.888
			c-0.389,0.731-0.659,1.52-0.8,2.336c0,0.192-0.088,0.376-0.112,0.576c-0.024,0.2-0.048,0.2-0.056,0.304l-4.288,71.416
			c-0.265,4.41,3.095,8.201,7.506,8.466c0.165,0.01,0.33,0.015,0.494,0.014h472v-16H34.655z M211.215,46.018
			c2.209-3.826,7.102-5.137,10.928-2.928l27.704,16c3.836,2.193,5.168,7.08,2.975,10.915c-0.002,0.004-0.005,0.008-0.007,0.013
			l-12,20.8l-41.6-24L211.215,46.018z M191.231,80.65l41.6,24l-4,6.92l-41.56-24L191.231,80.65z M179.215,101.442l41.6,24
			l-156,270.224l-41.6-24L179.215,101.442z M19.511,388.002l33,19.048l-35.552,23.472L19.511,388.002z"/>
	</g>
</g>
<g>
</g>
<g>
</g>
<g>
</g>
<g>
</g>
<g>
</g>
<g>
</g>
<g>
</g>
<g>
</g>
<g>
</g>
<g>
</g>
<g>
</g>
<g>
</g>
<g>
</g>
<g>
</g>
<g>
</g>
</svg>
