<svg id="_x31_px" enable-background="new 0 0 24 24" height="512" viewBox="0 0 24 24" width="512" xmlns="http://www.w3.org/2000/svg"><path d="m6.5 23h-6c-.276 0-.5-.224-.5-.5s.224-.5.5-.5h6c.276 0 .5.224.5.5s-.224.5-.5.5z"/><path d="m10.5 23h-2c-.276 0-.5-.224-.5-.5s.224-.5.5-.5h2c.276 0 .5.224.5.5s-.224.5-.5.5z"/><path d="m6.5 24c-.276 0-.5-.224-.5-.5v-2c0-.276.224-.5.5-.5s.5.224.5.5v2c0 .276-.224.5-.5.5z"/><path d="m2.5 19h-2c-.276 0-.5-.224-.5-.5s.224-.5.5-.5h2c.276 0 .5.224.5.5s-.224.5-.5.5z"/><path d="m10.5 19h-6c-.276 0-.5-.224-.5-.5s.224-.5.5-.5h6c.276 0 .5.224.5.5s-.224.5-.5.5z"/><path d="m2.5 20c-.276 0-.5-.224-.5-.5v-2c0-.276.224-.5.5-.5s.5.224.5.5v2c0 .276-.224.5-.5.5z"/><path d="m15.5 23h-2c-.276 0-.5-.224-.5-.5s.224-.5.5-.5h2c.276 0 .5.224.5.5s-.224.5-.5.5z"/><path d="m23.5 23h-6c-.276 0-.5-.224-.5-.5s.224-.5.5-.5h6c.276 0 .5.224.5.5s-.224.5-.5.5z"/><path d="m15.5 24c-.276 0-.5-.224-.5-.5v-2c0-.276.224-.5.5-.5s.5.224.5.5v2c0 .276-.224.5-.5.5z"/><path d="m18.5 19h-5c-.276 0-.5-.224-.5-.5s.224-.5.5-.5h5c.276 0 .5.224.5.5s-.224.5-.5.5z"/><path d="m23.5 19h-3c-.276 0-.5-.224-.5-.5s.224-.5.5-.5h3c.276 0 .5.224.5.5s-.224.5-.5.5z"/><path d="m18.5 20c-.276 0-.5-.224-.5-.5v-2c0-.276.224-.5.5-.5s.5.224.5.5v2c0 .276-.224.5-.5.5z"/><path d="m12 6c-.053 0-.107-.009-.158-.026l-7.5-2.5c-.204-.068-.342-.259-.342-.474s.138-.406.342-.474l7.5-2.5c.103-.034.214-.034.316 0l7.5 2.5c.204.068.342.259.342.474s-.138.406-.342.474l-7.5 2.5c-.051.017-.105.026-.158.026zm-5.919-3 5.919 1.973 5.919-1.973-5.919-1.973z"/><path d="m12 16c-.053 0-.107-.009-.158-.026l-7.5-2.5c-.204-.068-.342-.259-.342-.474v-10c0-.276.224-.5.5-.5s.5.224.5.5v9.64l7 2.333 7-2.333v-9.64c0-.276.224-.5.5-.5s.5.224.5.5v10c0 .215-.138.406-.342.474l-7.5 2.5c-.051.017-.105.026-.158.026z"/><path d="m12 16c-.276 0-.5-.224-.5-.5v-10c0-.276.224-.5.5-.5s.5.224.5.5v10c0 .276-.224.5-.5.5z"/></svg>