<?xml version="1.0" encoding="iso-8859-1"?>
<!-- Generator: Adobe Illustrator 19.0.0, SVG Export Plug-In . SVG Version: 6.00 Build 0)  -->
<svg version="1.1" id="Capa_1" xmlns="http://www.w3.org/2000/svg" xmlns:xlink="http://www.w3.org/1999/xlink" x="0px" y="0px"
	 viewBox="0 0 480 480" style="enable-background:new 0 0 480 480;" xml:space="preserve">
<g>
	<g>
		<path d="M440.666,94.264L429.362,82.96c-8.837-8.855-21.323-13.042-33.712-11.304V8c0-4.418-3.582-8-8-8h-352
			c-4.418,0-8,3.582-8,8v464c0,4.418,3.582,8,8,8h256c2.121-0.005,4.154-0.847,5.656-2.344l96-96c0.671-0.678,1.213-1.472,1.6-2.344
			c0.112-0.248,0.176-0.496,0.264-0.752c0.231-0.663,0.368-1.355,0.408-2.056c0-0.176,0.104-0.328,0.104-0.504V195.864
			l45.016-45.008C456.247,135.191,456.232,109.912,440.666,94.264z M299.65,452.688V384h68.688L299.65,452.688z M379.65,368h-88
			c-4.418,0-8,3.582-8,8v88h-240V16h336v61.488c-0.208,0.128-0.368,0.32-0.576,0.456c-2.261,1.46-4.365,3.149-6.28,5.04
			L112.554,343.2c-0.08,0.08-0.104,0.184-0.176,0.264c-0.565,0.608-1.029,1.302-1.376,2.056c-0.064,0.136-0.152,0.256-0.208,0.4
			l-0.064,0.128l-30.624,82.528c-1.534,4.143,0.581,8.746,4.724,10.28c1.622,0.6,3.394,0.659,5.052,0.168l87.2-25.928
			c0.144-0.048,0.272-0.136,0.416-0.192c0.144-0.056,0.4-0.176,0.608-0.264c0.813-0.364,1.56-0.861,2.208-1.472
			c0,0,0.08-0.04,0.112-0.072l0.088-0.088l0.088-0.088L379.65,211.864V368z M157.826,377.136L361.45,173.512l16.968,16.968
			L174.794,394.104L157.826,377.136z M159.65,401.6l-58.944,17.536l20.672-55.776L159.65,401.6z M146.514,365.824l-16.968-16.968
			l203.648-203.624l16.968,16.968L146.514,365.824z M389.73,179.2l-45.28-45.28l11.328-11.328l45.248,45.248L389.73,179.2z
			 M429.354,139.544l0,0.032l-16.984,16.952l-45.248-45.248l16.984-16.984c1.987-2.003,4.321-3.629,6.888-4.8
			c9.137-4.26,19.964-2.341,27.08,4.8l11.264,11.304C438.656,114.994,438.663,130.141,429.354,139.544z"/>
	</g>
</g>
<g>
</g>
<g>
</g>
<g>
</g>
<g>
</g>
<g>
</g>
<g>
</g>
<g>
</g>
<g>
</g>
<g>
</g>
<g>
</g>
<g>
</g>
<g>
</g>
<g>
</g>
<g>
</g>
<g>
</g>
</svg>
